<?xml version="1.0" encoding="UTF-8" standalone="no"?>
<!DOCTYPE svg PUBLIC "-//W3C//DTD SVG 1.1//EN" "http://www.w3.org/Graphics/SVG/1.1/DTD/svg11.dtd">
<svg width="100%" height="100%" viewBox="0 0 395 61" version="1.1" xmlns="http://www.w3.org/2000/svg" xmlns:xlink="http://www.w3.org/1999/xlink" xml:space="preserve" xmlns:serif="http://www.serif.com/" style="fill-rule:evenodd;clip-rule:evenodd;stroke-linejoin:round;stroke-miterlimit:2;">
    <g transform="matrix(1,0,0,1,-32.4122,-283.897)">
        <g transform="matrix(2.37315,0,0,2.37315,-697.209,-587.071)">
            <path d="M327.154,368.75C326.878,368.87 326.794,368.882 326.122,368.882L319.834,368.882C318.85,368.882 318.442,368.858 317.89,368.774L317.89,370.874C318.466,370.814 318.886,370.79 319.798,370.79L325.522,370.79C325.09,371.666 324.382,372.386 323.506,372.83C323.302,372.926 323.302,372.926 323.23,372.974C323.23,372.854 323.242,372.566 323.242,372.554C323.254,371.87 323.266,371.762 323.302,371.522L321.046,371.522C321.106,371.786 321.118,371.966 321.118,372.35C321.118,373.946 320.914,374.798 320.338,375.542C319.774,376.262 318.91,376.79 317.59,377.21C318.286,377.918 318.478,378.206 318.958,379.154C319.75,378.782 320.158,378.566 320.65,378.23C321.478,377.654 322.102,376.97 322.522,376.202C322.942,375.41 323.146,374.534 323.218,373.286C323.746,373.67 324.142,374.054 324.562,374.594C326.11,373.634 327.142,372.422 327.91,370.622C328.066,370.25 328.102,370.19 328.282,369.998L327.154,368.75Z" style="fill:none;fill-rule:nonzero;stroke:black;stroke-width:1.63px;"/>
            <path d="M336.178,371.03C336.178,370.91 336.19,370.766 336.19,370.61C336.19,370.13 336.19,370.13 336.202,369.674C336.226,368.75 336.226,368.714 336.274,368.366L333.97,368.366C334.018,368.714 334.042,369.158 334.042,369.638L334.042,370.55C334.03,370.862 334.03,370.862 334.03,371.03L331.39,371.03C330.394,371.03 330.154,371.018 329.614,370.934L329.614,373.046C330.214,372.998 330.49,372.986 331.354,372.986L333.922,372.986C333.886,373.382 333.886,373.382 333.862,373.562C333.802,374.114 333.634,374.594 333.358,375.074C332.806,376.01 331.93,376.706 330.526,377.294C331.318,377.954 331.666,378.35 332.11,379.13C332.722,378.782 332.986,378.614 333.334,378.362C334.138,377.786 334.786,377.078 335.254,376.262C335.77,375.35 335.974,374.558 336.094,372.986L338.218,372.986C339.106,372.986 339.394,372.998 339.982,373.046L339.982,370.934C339.43,371.018 339.13,371.03 338.182,371.03L336.178,371.03Z" style="fill:none;fill-rule:nonzero;stroke:black;stroke-width:1.63px;"/>
            <path d="M347.806,369.47C348.202,370.058 348.514,370.682 348.766,371.378L349.978,370.862C349.702,370.142 349.462,369.698 349.006,369.038L347.806,369.47ZM349.342,368.894C349.726,369.458 350.074,370.118 350.314,370.718L351.526,370.214C351.25,369.566 350.938,369.026 350.506,368.45L349.342,368.894ZM345.742,378.89C345.694,378.458 345.67,377.858 345.67,377.054L345.67,373.934C345.79,374.006 345.79,374.006 346.21,374.174C347.41,374.678 348.826,375.458 349.99,376.262L351.13,374.222C349.258,373.106 347.71,372.398 345.67,371.726L345.67,370.082C345.67,369.278 345.682,368.678 345.73,368.33L343.414,368.33C343.486,368.978 343.498,369.098 343.498,370.07L343.498,377.054C343.498,378.002 343.474,378.35 343.426,378.89L345.742,378.89Z" style="fill:none;fill-rule:nonzero;stroke:black;stroke-width:1.63px;"/>
            <path d="M364.27,377.162C362.398,375.374 361.906,374.954 360.454,373.91C361.126,373.01 361.582,372.17 362.218,370.67C362.398,370.262 362.47,370.142 362.65,369.962L361.594,368.882C361.27,369.002 361.198,369.002 360.634,369.014L356.53,369.074C356.182,369.086 355.954,369.086 355.858,369.086C355.39,369.086 355.066,369.062 354.598,369.002L354.658,371.138C355.15,371.066 355.534,371.042 356.566,371.018L359.686,370.97C359.122,372.362 358.39,373.43 357.274,374.498C356.182,375.542 354.946,376.322 353.386,376.922C354.058,377.618 354.31,377.978 354.73,378.818C356.59,377.918 358.018,376.862 359.146,375.53C360.49,376.574 361.546,377.618 362.59,378.938L364.27,377.162Z" style="fill:none;fill-rule:nonzero;stroke:black;stroke-width:1.63px;"/>
            <path d="M367.606,372.962C367.954,372.926 368.338,372.914 368.734,372.914L372.874,372.914C373.366,372.914 373.654,372.926 374.014,372.962L374.014,372.278C374.71,372.686 375.106,372.878 375.802,373.154C376.03,372.422 376.234,371.954 376.642,371.258C375.586,370.946 374.734,370.55 373.774,369.926C372.862,369.338 372.31,368.834 371.746,368.078L369.802,368.078C369.286,368.834 368.734,369.362 367.786,370.022C366.826,370.67 366.13,371.006 365.026,371.342C365.434,371.954 365.626,372.338 365.926,373.106C366.622,372.83 367.006,372.638 367.606,372.29L367.606,372.962ZM369.118,371.294C369.922,370.682 370.282,370.346 370.81,369.698C371.35,370.346 371.782,370.766 372.49,371.294L369.118,371.294ZM368.53,375.278C368.23,375.962 367.882,376.61 367.486,377.234C366.778,377.258 366.778,377.258 366.646,377.258C366.382,377.258 366.166,377.246 365.854,377.222L366.082,379.226C366.382,379.178 366.718,379.142 367.138,379.106C367.642,379.082 370.882,378.806 371.674,378.722C372.334,378.662 372.334,378.662 373.726,378.506C374.014,378.962 374.014,378.962 374.29,379.394L375.946,378.374C374.998,377.054 374.614,376.586 373.414,375.278L374.602,375.278C375.214,375.278 375.622,375.302 376.054,375.35L376.054,373.514C375.622,373.55 375.178,373.574 374.602,373.574L367.066,373.574C366.514,373.574 366.022,373.55 365.602,373.514L365.602,375.35C366.034,375.302 366.454,375.278 367.066,375.278L368.53,375.278ZM372.994,375.278L371.578,375.842C372.094,376.394 372.262,376.586 372.598,376.994C371.35,377.102 371.35,377.102 369.598,377.174C369.958,376.622 370.354,375.914 370.642,375.278L372.994,375.278Z" style="fill:none;fill-rule:nonzero;stroke:black;stroke-width:1.63px;"/>
            <path d="M384.106,371.246L383.314,371.246C382.75,371.246 382.342,371.222 381.91,371.174L381.91,372.974C382.318,372.926 382.714,372.902 383.302,372.902L384.106,372.902L384.106,374.018L383.026,374.018C382.654,374.018 382.438,374.006 382.138,373.982C382.162,374.45 382.162,374.51 382.162,374.858L382.162,377.948C382.162,378.531 382.15,378.914 382.114,379.238L383.914,379.238L383.914,378.746L386.194,378.746L386.194,379.238L388.03,379.238C387.994,378.878 387.97,378.377 387.97,377.876L387.97,374.99C387.97,374.57 387.982,374.246 388.006,373.982C387.79,374.006 387.538,374.018 387.13,374.018L385.894,374.018L385.894,372.902L386.986,372.902C387.538,372.902 387.958,372.926 388.39,372.974L388.39,371.174C387.994,371.222 387.574,371.246 386.974,371.246L385.894,371.246L385.894,369.997C387.43,369.709 387.43,369.709 387.97,369.553C388.234,369.481 388.234,369.481 388.342,369.445L387.37,367.827C386.314,368.33 384.022,368.714 381.694,368.786C381.994,369.409 382.138,369.829 382.27,370.453C383.122,370.381 383.434,370.357 384.106,370.273L384.106,371.246ZM383.914,375.662L386.194,375.662L386.194,377.114L383.914,377.114L383.914,375.662ZM377.638,369.613C377.962,369.589 378.25,369.577 378.73,369.577L380.53,369.577C381.034,369.577 381.322,369.589 381.622,369.613L381.622,368.211C381.286,368.247 381.094,368.259 380.53,368.259L378.73,368.259C378.166,368.259 377.974,368.247 377.638,368.211L377.638,369.613ZM377.278,371.509C377.578,371.473 377.83,371.461 378.25,371.461L380.782,371.461C381.358,371.461 381.466,371.461 381.73,371.497L381.73,369.915C381.478,369.939 381.25,369.951 380.758,369.951L378.25,369.951C377.806,369.951 377.566,369.939 377.278,369.891L377.278,371.509ZM377.674,373.189C377.938,373.165 378.01,373.165 378.394,373.165L380.926,373.165C381.262,373.165 381.382,373.165 381.61,373.189L381.61,371.822C381.43,371.847 381.298,371.847 380.926,371.847L378.394,371.847C378.022,371.847 377.878,371.847 377.674,371.822L377.674,373.189ZM377.674,374.893C377.914,374.869 378.022,374.869 378.37,374.869L380.89,374.869C381.274,374.869 381.406,374.869 381.61,374.893L381.61,373.526C381.418,373.551 381.286,373.551 380.914,373.551L378.394,373.551C378.01,373.551 377.95,373.551 377.674,373.526L377.674,374.893ZM379.306,378.769L380.05,378.769L380.05,379.105L381.694,379.105C381.658,378.841 381.658,378.709 381.658,378.218L381.658,376.022C381.658,375.602 381.658,375.458 381.682,375.23C381.49,375.267 381.37,375.267 380.95,375.267L378.478,375.267C378.082,375.267 377.878,375.255 377.59,375.23C377.626,375.554 377.638,375.77 377.638,376.13L377.638,378.134C377.638,378.577 377.626,378.889 377.59,379.261L379.306,379.261L379.306,378.769ZM379.258,376.573L380.05,376.573L380.05,377.367L379.258,377.367L379.258,376.573Z" style="fill:none;fill-rule:nonzero;stroke:black;stroke-width:1.63px;"/>
            <path d="M396.97,368.93C397.33,369.482 397.582,369.998 397.81,370.67L398.998,370.202C398.758,369.554 398.518,369.098 398.122,368.534L396.97,368.93ZM390.538,370.166C391.75,370.586 392.746,371.078 393.982,371.882L395.05,370.046C394.042,369.446 393.022,368.978 391.606,368.462L390.538,370.166ZM398.47,368.414C398.95,369.146 399.046,369.338 399.334,370.118L400.486,369.662C400.246,369.026 400.006,368.57 399.61,368.018L398.47,368.414ZM389.602,373.118C390.946,373.646 392.002,374.222 393.034,374.99L394.054,373.106C392.974,372.398 392.086,371.954 390.706,371.402L389.602,373.118ZM390.55,378.926C390.814,378.842 391.054,378.782 391.402,378.722C392.362,378.554 392.878,378.422 393.586,378.194C395.518,377.594 397.006,376.646 398.218,375.266C398.986,374.402 399.478,373.574 400.09,372.134C399.406,371.702 398.974,371.342 398.326,370.634C397.93,371.774 397.582,372.47 397.006,373.262C396.13,374.474 395.05,375.314 393.646,375.878C392.482,376.346 391.09,376.634 389.95,376.646L390.55,378.926Z" style="fill:none;fill-rule:nonzero;stroke:black;stroke-width:1.63px;"/>
            <path d="M407.722,373.202L408.874,373.202C409.618,373.202 410.11,373.226 410.446,373.262L410.446,371.426C409.978,371.486 409.642,371.51 408.874,371.51L404.686,371.51C403.966,371.51 403.606,371.486 403.138,371.426L403.138,373.262C403.654,373.214 403.906,373.202 404.698,373.202L405.802,373.202L405.802,376.778L404.002,376.778C403.126,376.778 402.826,376.766 402.382,376.706L402.382,378.53C402.958,378.482 403.138,378.482 404.014,378.482L409.594,378.482C410.446,378.482 410.782,378.494 411.214,378.53L411.214,376.706C410.734,376.766 410.362,376.778 409.594,376.778L407.722,376.778L407.722,373.202Z" style="fill:none;fill-rule:nonzero;stroke:black;stroke-width:1.63px;"/>
            <path d="M419.782,379.106C419.71,378.518 419.71,378.374 419.71,377.426L419.71,375.11C421.114,375.722 422.23,376.358 423.226,377.114L424.414,375.35C423.202,374.57 422.05,374.006 420.526,373.466C421.99,372.206 422.122,372.074 422.734,371.39C423.094,370.97 423.094,370.97 423.286,370.838L422.35,369.746C422.122,369.842 421.93,369.878 421.582,369.878L419.674,369.878L419.674,369.206C419.674,368.762 419.698,368.462 419.746,368.114L417.514,368.114C417.562,368.534 417.574,368.69 417.574,369.23L417.574,369.89L416.146,369.89C415.426,369.89 414.946,369.866 414.394,369.794L414.394,371.738C414.922,371.69 415.078,371.678 416.122,371.678L419.794,371.654C418.798,372.578 417.994,373.118 416.77,373.658C415.69,374.138 414.442,374.534 413.17,374.798C413.638,375.446 413.83,375.806 414.154,376.646C415.726,376.178 416.71,375.782 417.61,375.254L417.61,377.414C417.61,378.23 417.586,378.638 417.526,379.106L419.782,379.106Z" style="fill:none;fill-rule:nonzero;stroke:black;stroke-width:1.63px;"/>
            <path d="M426.85,368.57C426.898,368.93 426.922,369.314 426.922,369.878L426.922,370.07L426.874,376.742C426.862,377.342 426.85,377.474 426.73,377.726L427.798,378.974C428.002,378.854 428.074,378.842 428.518,378.758C432.058,378.146 434.278,376.754 436.018,374.066C435.322,373.538 434.95,373.13 434.398,372.338C433.306,374.51 431.506,375.878 429.082,376.418L429.154,370.058C429.166,369.35 429.178,369.038 429.238,368.582L426.85,368.57Z" style="fill:none;fill-rule:nonzero;stroke:black;stroke-width:1.63px;"/>
            <path d="M437.47,374.762C438.202,374.702 438.598,374.69 439.942,374.69L445.654,374.69C447.022,374.69 447.55,374.702 448.126,374.762L448.126,372.446C447.322,372.53 446.866,372.554 445.666,372.554L439.93,372.554C438.682,372.554 438.034,372.53 437.47,372.446L437.47,374.762Z" style="fill:none;fill-rule:nonzero;stroke:black;stroke-width:1.63px;"/>
            <path d="M453.034,367.982C452.878,368.534 452.674,369.05 452.338,369.662C451.63,370.994 450.766,371.99 449.35,373.106C450.13,373.538 450.502,373.838 451.078,374.462C452.29,373.394 453.118,372.41 453.814,371.21L457.138,371.186C456.886,371.978 456.598,372.626 456.106,373.382C455.35,372.83 454.966,372.59 453.898,372.014L452.638,373.526C453.538,374.018 454.126,374.402 454.87,375.014C453.79,376.118 452.626,376.826 450.802,377.474C451.474,378.122 451.762,378.494 452.206,379.274C453.13,378.854 453.622,378.59 454.27,378.17C455.434,377.402 456.418,376.49 457.186,375.458C458.074,374.258 458.71,372.962 459.418,370.826C459.514,370.538 459.55,370.466 459.694,370.31L458.626,369.254C458.398,369.374 458.242,369.41 457.894,369.41L454.666,369.446C455.002,368.762 455.17,368.426 455.182,368.402L453.034,367.982Z" style="fill:none;fill-rule:nonzero;stroke:black;stroke-width:1.63px;"/>
            <path d="M461.47,374.762C462.202,374.702 462.598,374.69 463.942,374.69L469.654,374.69C471.022,374.69 471.55,374.702 472.126,374.762L472.126,372.446C471.322,372.53 470.866,372.554 469.666,372.554L463.93,372.554C462.682,372.554 462.034,372.53 461.47,372.446L461.47,374.762Z" style="fill:none;fill-rule:nonzero;stroke:black;stroke-width:1.63px;"/>
            <path d="M318.538,391.195C318.382,390.859 318.19,390.367 317.962,389.731L315.358,382.508C315.118,381.872 315.034,381.56 314.95,381.212L311.818,381.212C311.758,381.56 311.65,381.92 311.434,382.508L308.842,389.731C308.554,390.547 308.446,390.835 308.266,391.195L311.074,391.195C311.134,390.751 311.218,390.379 311.374,389.899L311.698,388.879L315.118,388.879L315.442,389.899C315.562,390.307 315.634,390.619 315.73,391.195L318.538,391.195ZM314.53,386.864L312.274,386.864L313.39,383.264L314.53,386.864Z" style="fill:none;fill-rule:nonzero;stroke:black;stroke-width:1.63px;"/>
            <path d="M321.742,391.195C321.67,390.571 321.646,390.067 321.646,389.383L321.646,386.959C322.162,386.119 322.762,385.699 323.434,385.699C323.794,385.699 324.07,385.819 324.226,386.035C324.37,386.239 324.418,386.443 324.418,386.923L324.418,389.383C324.418,390.115 324.394,390.619 324.322,391.195L326.818,391.195C326.758,390.691 326.722,390.091 326.722,389.395L326.722,386.383C326.722,385.435 326.518,384.847 326.038,384.367C325.594,383.924 324.934,383.696 324.106,383.696C323.122,383.696 322.39,383.996 321.634,384.715C321.634,384.631 321.646,384.451 321.646,384.379L321.646,383.876L319.258,383.876C319.33,384.356 319.354,384.86 319.354,385.688L319.354,389.383C319.354,390.127 319.33,390.631 319.258,391.195L321.742,391.195Z" style="fill:none;fill-rule:nonzero;stroke:black;stroke-width:1.63px;"/>
            <path d="M332.877,386.456C332.013,386.48 331.653,386.492 331.185,386.54C330.105,386.636 329.302,386.888 328.69,387.32C328.114,387.716 327.815,388.316 327.815,389.072C327.815,389.732 328.042,390.307 328.474,390.703C328.954,391.147 329.637,391.363 330.549,391.363C331.533,391.363 332.205,391.159 332.877,390.643L332.877,391.195L335.205,391.195C335.145,390.655 335.121,390.223 335.121,389.491L335.121,386.251C335.121,385.171 334.785,384.511 334.017,384.092C333.549,383.84 332.685,383.672 331.797,383.672C330.633,383.672 329.745,383.9 329.098,384.355C328.594,384.715 328.33,385.099 328.09,385.807L330.381,386.179C330.561,385.591 330.969,385.339 331.737,385.339C332.529,385.339 332.877,385.603 332.877,386.179L332.877,386.456ZM332.877,388.328C332.877,388.688 332.721,389.012 332.445,389.252C332.121,389.528 331.581,389.708 331.089,389.708C330.465,389.708 330.105,389.456 330.105,389.024C330.105,388.676 330.369,388.376 330.801,388.232C331.293,388.076 331.809,388.016 332.877,387.992L332.877,388.328Z" style="fill:none;fill-rule:nonzero;stroke:black;stroke-width:1.63px;"/>
            <path d="M342.083,391.195L344.445,391.195C344.373,390.607 344.349,390.115 344.349,389.311L344.349,383.096C344.349,382.292 344.373,381.716 344.445,381.212L341.987,381.212C342.059,381.74 342.083,382.256 342.083,383.096L342.083,384.092C342.083,384.26 342.083,384.367 342.095,384.547C341.302,383.912 340.606,383.66 339.634,383.66C338.649,383.66 337.81,383.984 337.198,384.595C336.526,385.279 336.167,386.275 336.167,387.523C336.167,389.948 337.486,391.411 339.67,391.411C340.678,391.411 341.29,391.195 342.095,390.547C342.083,390.655 342.083,390.739 342.083,390.811L342.083,391.195ZM340.198,385.495C341.29,385.495 342.059,386.335 342.059,387.499C342.059,388.688 341.278,389.576 340.21,389.576C339.766,389.576 339.333,389.408 339.045,389.12C338.685,388.772 338.493,388.22 338.493,387.535C338.493,386.275 339.153,385.495 340.198,385.495Z" style="fill:none;fill-rule:nonzero;stroke:black;stroke-width:1.63px;"/>
            <path d="M349.342,391.471C351.73,391.471 353.313,389.888 353.313,387.499C353.313,385.123 351.778,383.6 349.354,383.6C346.93,383.6 345.395,385.123 345.395,387.523C345.395,389.936 346.93,391.471 349.342,391.471ZM349.366,385.399C350.386,385.399 350.999,386.191 350.999,387.535C350.999,388.868 350.398,389.648 349.354,389.648C348.309,389.648 347.685,388.844 347.685,387.511C347.685,386.191 348.309,385.399 349.366,385.399Z" style="fill:none;fill-rule:nonzero;stroke:black;stroke-width:1.63px;"/>
            <path d="M354.011,389.012C354.131,389.588 354.251,389.876 354.49,390.212C355.066,391.003 356.133,391.411 357.646,391.411C358.931,391.411 359.914,391.111 360.489,390.535C360.885,390.152 361.101,389.576 361.101,388.94C361.101,388.075 360.729,387.487 359.95,387.103C359.53,386.887 359.158,386.779 357.982,386.527C356.793,386.263 356.541,386.143 356.541,385.819C356.541,385.507 356.925,385.303 357.55,385.303C358.198,385.303 358.498,385.519 358.558,386.011L360.873,385.759C360.681,385.087 360.489,384.739 360.094,384.391C359.53,383.876 358.678,383.624 357.538,383.624C355.534,383.624 354.323,384.499 354.323,385.939C354.323,386.347 354.43,386.755 354.622,387.079C354.85,387.439 355.246,387.715 355.822,387.931C356.217,388.063 356.685,388.183 357.598,388.364C358.258,388.496 358.414,388.544 358.582,388.64C358.751,388.736 358.847,388.892 358.847,389.072C358.847,389.444 358.438,389.648 357.718,389.648C356.913,389.648 356.505,389.372 356.385,388.748L354.011,389.012Z" style="fill:none;fill-rule:nonzero;stroke:black;stroke-width:1.63px;"/>
            <path d="M371.362,383.335L372.718,383.335C373.582,383.335 374.05,383.359 374.59,383.419L374.59,381.128C374.038,381.188 373.558,381.212 372.718,381.212L367.462,381.212C366.73,381.212 366.07,381.176 365.674,381.128L365.674,383.42C366.526,383.347 366.73,383.335 367.486,383.335L368.902,383.335L368.902,389.383C368.902,390.139 368.878,390.631 368.806,391.195L371.458,391.195C371.386,390.631 371.362,390.103 371.362,389.383L371.362,383.335Z" style="fill:none;fill-rule:nonzero;stroke:black;stroke-width:1.63px;"/>
            <path d="M382.702,388.207C382.69,388.087 382.69,388.015 382.69,387.967C382.654,387.283 382.606,386.78 382.51,386.396C382.09,384.607 380.782,383.588 378.91,383.588C376.618,383.588 375.094,385.159 375.094,387.535C375.094,388.723 375.478,389.744 376.186,390.463C376.87,391.147 377.794,391.483 378.97,391.483C380.158,391.483 381.118,391.135 381.802,390.463C382.138,390.128 382.318,389.852 382.594,389.228L380.506,388.639C380.41,388.951 380.326,389.083 380.146,389.252C379.834,389.54 379.414,389.696 378.934,389.696C377.986,389.696 377.422,389.179 377.302,388.207L382.702,388.207ZM377.338,386.552C377.542,385.759 378.058,385.375 378.91,385.375C379.738,385.375 380.254,385.783 380.422,386.552L377.338,386.552Z" style="fill:none;fill-rule:nonzero;stroke:black;stroke-width:1.63px;"/>
            <path d="M391.402,391.195C391.006,390.703 390.754,390.379 390.514,390.043L388.594,387.331L390.298,384.932C390.502,384.656 390.874,384.164 391.114,383.876L388.426,383.876C388.306,384.188 388.138,384.5 387.874,384.896L387.286,385.796L386.686,384.896C386.434,384.524 386.338,384.344 386.146,383.876L383.434,383.876C383.914,384.488 384.19,384.848 384.25,384.932L385.966,387.331L384.022,390.067C383.794,390.391 383.446,390.835 383.134,391.195L385.942,391.195C386.122,390.811 386.326,390.427 386.518,390.139L387.274,388.951L388.018,390.103C388.234,390.439 388.462,390.835 388.618,391.195L391.402,391.195Z" style="fill:none;fill-rule:nonzero;stroke:black;stroke-width:1.63px;"/>
            <path d="M393.094,383.876L392.662,383.876C392.242,383.876 391.942,383.852 391.594,383.804L391.594,385.807C391.942,385.758 392.254,385.735 392.638,385.735L393.094,385.735L393.094,389.408C393.094,390.223 393.262,390.631 393.718,390.979C394.102,391.267 394.666,391.399 395.482,391.399C396.13,391.399 396.598,391.327 397.138,391.159L396.958,389.336C396.658,389.492 396.43,389.552 396.118,389.552C395.89,389.552 395.698,389.504 395.566,389.42C395.41,389.312 395.35,389.144 395.35,388.808L395.35,385.735L395.854,385.735C396.286,385.735 396.598,385.758 396.958,385.807L396.958,383.816C396.586,383.864 396.31,383.876 395.782,383.876L395.35,383.876L395.35,383.624C395.35,383.048 395.386,382.472 395.446,381.98L392.998,381.98C393.07,382.544 393.094,383.024 393.094,383.624L393.094,383.876Z" style="fill:none;fill-rule:nonzero;stroke:black;stroke-width:1.63px;"/>
            <path d="M408.393,387.547L408.393,388.916C407.805,389.216 407.289,389.348 406.653,389.348C405.897,389.348 405.309,389.12 404.925,388.699C404.445,388.171 404.193,387.307 404.193,386.192C404.193,384.175 405.033,383.059 406.569,383.059C407.073,383.059 407.469,383.179 407.781,383.431C408.045,383.635 408.189,383.863 408.321,384.295L410.769,383.731C410.577,383.155 410.385,382.795 410.061,382.423C409.269,381.464 408.129,380.996 406.629,380.996C403.605,380.996 401.699,382.999 401.699,386.156C401.699,387.799 402.202,389.228 403.114,390.139C403.965,391.003 405.153,391.423 406.677,391.423C407.565,391.423 408.441,391.279 409.221,391.015C409.761,390.835 410.085,390.679 410.745,390.259C410.673,389.708 410.661,389.324 410.661,388.471L410.661,387.127C410.661,386.347 410.685,385.952 410.745,385.496C410.217,385.544 409.773,385.556 409.161,385.556L408.201,385.556C407.361,385.556 407.073,385.544 406.629,385.484L406.629,387.607C407.001,387.559 407.205,387.547 407.817,387.547L408.393,387.547Z" style="fill:none;fill-rule:nonzero;stroke:black;stroke-width:1.63px;"/>
            <path d="M419.278,388.207C419.266,388.087 419.266,388.015 419.266,387.967C419.23,387.283 419.182,386.78 419.086,386.396C418.666,384.607 417.358,383.588 415.486,383.588C413.194,383.588 411.67,385.159 411.67,387.535C411.67,388.723 412.054,389.744 412.762,390.463C413.446,391.147 414.37,391.483 415.546,391.483C416.734,391.483 417.694,391.135 418.378,390.463C418.714,390.128 418.894,389.852 419.17,389.228L417.082,388.639C416.986,388.951 416.902,389.083 416.722,389.252C416.41,389.54 415.99,389.696 415.51,389.696C414.562,389.696 413.998,389.179 413.878,388.207L419.278,388.207ZM413.914,386.552C414.118,385.759 414.634,385.375 415.486,385.375C416.314,385.375 416.83,385.783 416.998,386.552L413.914,386.552Z" style="fill:none;fill-rule:nonzero;stroke:black;stroke-width:1.63px;"/>
            <path d="M422.722,391.195C422.65,390.571 422.626,390.067 422.626,389.383L422.626,386.959C423.142,386.119 423.742,385.699 424.414,385.699C424.774,385.699 425.05,385.819 425.206,386.035C425.35,386.239 425.398,386.443 425.398,386.923L425.398,389.383C425.398,390.115 425.374,390.619 425.302,391.195L427.798,391.195C427.738,390.691 427.702,390.091 427.702,389.395L427.702,386.383C427.702,385.435 427.498,384.847 427.018,384.367C426.574,383.924 425.914,383.696 425.086,383.696C424.102,383.696 423.37,383.996 422.614,384.715C422.614,384.631 422.626,384.451 422.626,384.379L422.626,383.876L420.238,383.876C420.31,384.356 420.334,384.86 420.334,385.688L420.334,389.383C420.334,390.127 420.31,390.631 420.238,391.195L422.722,391.195Z" style="fill:none;fill-rule:nonzero;stroke:black;stroke-width:1.63px;"/>
            <path d="M436.342,388.207C436.33,388.087 436.33,388.015 436.33,387.967C436.294,387.283 436.246,386.78 436.15,386.396C435.73,384.607 434.422,383.588 432.55,383.588C430.258,383.588 428.734,385.159 428.734,387.535C428.734,388.723 429.118,389.744 429.826,390.463C430.51,391.147 431.434,391.483 432.61,391.483C433.798,391.483 434.758,391.135 435.442,390.463C435.778,390.128 435.958,389.852 436.234,389.228L434.146,388.639C434.05,388.951 433.966,389.083 433.786,389.252C433.474,389.54 433.054,389.696 432.574,389.696C431.626,389.696 431.062,389.179 430.942,388.207L436.342,388.207ZM430.978,386.552C431.182,385.759 431.698,385.375 432.55,385.375C433.378,385.375 433.894,385.783 434.062,386.552L430.978,386.552Z" style="fill:none;fill-rule:nonzero;stroke:black;stroke-width:1.63px;"/>
            <path d="M443.278,383.876C442.714,383.756 442.474,383.732 442.09,383.732C440.998,383.732 440.278,384.056 439.69,384.823L439.69,383.876L437.302,383.876C437.374,384.392 437.398,384.812 437.398,385.688L437.398,389.383C437.398,390.163 437.374,390.595 437.302,391.195L439.786,391.195C439.714,390.619 439.69,390.163 439.69,389.395L439.69,387.523C439.738,386.995 439.822,386.743 440.05,386.455C440.398,386.023 440.866,385.807 441.478,385.807C441.85,385.807 442.15,385.867 442.702,386.035L443.278,383.876Z" style="fill:none;fill-rule:nonzero;stroke:black;stroke-width:1.63px;"/>
            <path d="M448.809,386.456C447.945,386.48 447.585,386.492 447.117,386.54C446.037,386.636 445.234,386.888 444.622,387.32C444.046,387.716 443.747,388.316 443.747,389.072C443.747,389.732 443.974,390.307 444.406,390.703C444.886,391.147 445.569,391.363 446.481,391.363C447.465,391.363 448.137,391.159 448.809,390.643L448.809,391.195L451.137,391.195C451.077,390.655 451.053,390.223 451.053,389.491L451.053,386.251C451.053,385.171 450.717,384.511 449.949,384.092C449.481,383.84 448.617,383.672 447.729,383.672C446.565,383.672 445.677,383.9 445.03,384.355C444.526,384.715 444.262,385.099 444.022,385.807L446.313,386.179C446.493,385.591 446.901,385.339 447.669,385.339C448.461,385.339 448.809,385.603 448.809,386.179L448.809,386.456ZM448.809,388.328C448.809,388.688 448.653,389.012 448.377,389.252C448.053,389.528 447.513,389.708 447.021,389.708C446.397,389.708 446.037,389.456 446.037,389.024C446.037,388.676 446.301,388.376 446.733,388.232C447.225,388.076 447.741,388.016 448.809,387.992L448.809,388.328Z" style="fill:none;fill-rule:nonzero;stroke:black;stroke-width:1.63px;"/>
            <path d="M453.358,383.876L452.926,383.876C452.506,383.876 452.206,383.852 451.858,383.804L451.858,385.807C452.206,385.758 452.518,385.735 452.902,385.735L453.358,385.735L453.358,389.408C453.358,390.223 453.526,390.631 453.982,390.979C454.366,391.267 454.93,391.399 455.746,391.399C456.394,391.399 456.862,391.327 457.402,391.159L457.222,389.336C456.922,389.492 456.694,389.552 456.382,389.552C456.154,389.552 455.962,389.504 455.83,389.42C455.674,389.312 455.614,389.144 455.614,388.808L455.614,385.735L456.118,385.735C456.55,385.735 456.862,385.758 457.222,385.807L457.222,383.816C456.85,383.864 456.574,383.876 456.046,383.876L455.614,383.876L455.614,383.624C455.614,383.048 455.65,382.472 455.71,381.98L453.262,381.98C453.334,382.544 453.358,383.024 453.358,383.624L453.358,383.876Z" style="fill:none;fill-rule:nonzero;stroke:black;stroke-width:1.63px;"/>
            <path d="M461.794,391.471C464.182,391.471 465.765,389.888 465.765,387.499C465.765,385.123 464.23,383.6 461.806,383.6C459.382,383.6 457.847,385.123 457.847,387.523C457.847,389.936 459.382,391.471 461.794,391.471ZM461.818,385.399C462.838,385.399 463.451,386.191 463.451,387.535C463.451,388.868 462.85,389.648 461.806,389.648C460.761,389.648 460.137,388.844 460.137,387.511C460.137,386.191 460.761,385.399 461.818,385.399Z" style="fill:none;fill-rule:nonzero;stroke:black;stroke-width:1.63px;"/>
            <path d="M472.714,383.876C472.15,383.756 471.91,383.732 471.526,383.732C470.434,383.732 469.714,384.056 469.126,384.823L469.126,383.876L466.738,383.876C466.81,384.392 466.834,384.812 466.834,385.688L466.834,389.383C466.834,390.163 466.81,390.595 466.738,391.195L469.222,391.195C469.15,390.619 469.126,390.163 469.126,389.395L469.126,387.523C469.174,386.995 469.258,386.743 469.486,386.455C469.834,386.023 470.302,385.807 470.914,385.807C471.286,385.807 471.586,385.867 472.138,386.035L472.714,383.876Z" style="fill:none;fill-rule:nonzero;stroke:black;stroke-width:1.63px;"/>
            <g transform="matrix(12,0,0,12,316.798,378.182)">
                <path d="M0.863,-0.786C0.84,-0.776 0.833,-0.775 0.777,-0.775L0.253,-0.775C0.171,-0.775 0.137,-0.777 0.091,-0.784L0.091,-0.609C0.139,-0.614 0.174,-0.616 0.25,-0.616L0.727,-0.616C0.691,-0.543 0.632,-0.483 0.559,-0.446C0.542,-0.438 0.542,-0.438 0.536,-0.434C0.536,-0.444 0.537,-0.468 0.537,-0.469C0.538,-0.526 0.539,-0.535 0.542,-0.555L0.354,-0.555C0.359,-0.533 0.36,-0.518 0.36,-0.486C0.36,-0.353 0.343,-0.282 0.295,-0.22C0.248,-0.16 0.176,-0.116 0.066,-0.081C0.124,-0.022 0.14,0.002 0.18,0.081C0.246,0.05 0.28,0.032 0.321,0.004C0.39,-0.044 0.442,-0.101 0.477,-0.165C0.512,-0.231 0.529,-0.304 0.535,-0.408C0.579,-0.376 0.612,-0.344 0.647,-0.299C0.776,-0.379 0.862,-0.48 0.926,-0.63C0.939,-0.661 0.942,-0.666 0.957,-0.682L0.863,-0.786Z" style="fill:white;fill-rule:nonzero;"/>
            </g>
            <g transform="matrix(12,0,0,12,328.798,378.182)">
                <path d="M0.615,-0.596C0.615,-0.606 0.616,-0.618 0.616,-0.631C0.616,-0.671 0.616,-0.671 0.617,-0.709C0.619,-0.786 0.619,-0.789 0.623,-0.818L0.431,-0.818C0.435,-0.789 0.437,-0.752 0.437,-0.712L0.437,-0.636C0.436,-0.61 0.436,-0.61 0.436,-0.596L0.216,-0.596C0.133,-0.596 0.113,-0.597 0.068,-0.604L0.068,-0.428C0.118,-0.432 0.141,-0.433 0.213,-0.433L0.427,-0.433C0.424,-0.4 0.424,-0.4 0.422,-0.385C0.417,-0.339 0.403,-0.299 0.38,-0.259C0.334,-0.181 0.261,-0.123 0.144,-0.074C0.21,-0.019 0.239,0.014 0.276,0.079C0.327,0.05 0.349,0.036 0.378,0.015C0.445,-0.033 0.499,-0.092 0.538,-0.16C0.581,-0.236 0.598,-0.302 0.608,-0.433L0.785,-0.433C0.859,-0.433 0.883,-0.432 0.932,-0.428L0.932,-0.604C0.886,-0.597 0.861,-0.596 0.782,-0.596L0.615,-0.596Z" style="fill:white;fill-rule:nonzero;"/>
            </g>
            <g transform="matrix(12,0,0,12,340.798,378.182)">
                <path d="M0.584,-0.726C0.617,-0.677 0.643,-0.625 0.664,-0.567L0.765,-0.61C0.742,-0.67 0.722,-0.707 0.684,-0.762L0.584,-0.726ZM0.712,-0.774C0.744,-0.727 0.773,-0.672 0.793,-0.622L0.894,-0.664C0.871,-0.718 0.845,-0.763 0.809,-0.811L0.712,-0.774ZM0.412,0.059C0.408,0.023 0.406,-0.027 0.406,-0.094L0.406,-0.354C0.416,-0.348 0.416,-0.348 0.451,-0.334C0.551,-0.292 0.669,-0.227 0.766,-0.16L0.861,-0.33C0.705,-0.423 0.576,-0.482 0.406,-0.538L0.406,-0.675C0.406,-0.742 0.407,-0.792 0.411,-0.821L0.218,-0.821C0.224,-0.767 0.225,-0.757 0.225,-0.676L0.225,-0.094C0.225,-0.015 0.223,0.014 0.219,0.059L0.412,0.059Z" style="fill:white;fill-rule:nonzero;"/>
            </g>
            <g transform="matrix(12,0,0,12,352.798,378.182)">
                <path d="M0.956,-0.085C0.8,-0.234 0.759,-0.269 0.638,-0.356C0.694,-0.431 0.732,-0.501 0.785,-0.626C0.8,-0.66 0.806,-0.67 0.821,-0.685L0.733,-0.775C0.706,-0.765 0.7,-0.765 0.653,-0.764L0.311,-0.759C0.282,-0.758 0.263,-0.758 0.255,-0.758C0.216,-0.758 0.189,-0.76 0.15,-0.765L0.155,-0.587C0.196,-0.593 0.228,-0.595 0.314,-0.597L0.574,-0.601C0.527,-0.485 0.466,-0.396 0.373,-0.307C0.282,-0.22 0.179,-0.155 0.049,-0.105C0.105,-0.047 0.126,-0.017 0.161,0.053C0.316,-0.022 0.435,-0.11 0.529,-0.221C0.641,-0.134 0.729,-0.047 0.816,0.063L0.956,-0.085Z" style="fill:white;fill-rule:nonzero;"/>
            </g>
            <g transform="matrix(12,0,0,12,364.798,378.182)">
                <path d="M0.234,-0.435C0.263,-0.438 0.295,-0.439 0.328,-0.439L0.673,-0.439C0.714,-0.439 0.738,-0.438 0.768,-0.435L0.768,-0.492C0.826,-0.458 0.859,-0.442 0.917,-0.419C0.936,-0.48 0.953,-0.519 0.987,-0.577C0.899,-0.603 0.828,-0.636 0.748,-0.688C0.672,-0.737 0.626,-0.779 0.579,-0.842L0.417,-0.842C0.374,-0.779 0.328,-0.735 0.249,-0.68C0.169,-0.626 0.111,-0.598 0.019,-0.57C0.053,-0.519 0.069,-0.487 0.094,-0.423C0.152,-0.446 0.184,-0.462 0.234,-0.491L0.234,-0.435ZM0.36,-0.574C0.427,-0.625 0.457,-0.653 0.501,-0.707C0.546,-0.653 0.582,-0.618 0.641,-0.574L0.36,-0.574ZM0.311,-0.242C0.286,-0.185 0.257,-0.131 0.224,-0.079C0.165,-0.077 0.165,-0.077 0.154,-0.077C0.132,-0.077 0.114,-0.078 0.088,-0.08L0.107,0.087C0.132,0.083 0.16,0.08 0.195,0.077C0.237,0.075 0.507,0.052 0.573,0.045C0.628,0.04 0.628,0.04 0.744,0.027C0.768,0.065 0.768,0.065 0.791,0.101L0.929,0.016C0.85,-0.094 0.818,-0.133 0.718,-0.242L0.817,-0.242C0.868,-0.242 0.902,-0.24 0.938,-0.236L0.938,-0.389C0.902,-0.386 0.865,-0.384 0.817,-0.384L0.189,-0.384C0.143,-0.384 0.102,-0.386 0.067,-0.389L0.067,-0.236C0.103,-0.24 0.138,-0.242 0.189,-0.242L0.311,-0.242ZM0.683,-0.242L0.565,-0.195C0.608,-0.149 0.622,-0.133 0.65,-0.099C0.546,-0.09 0.546,-0.09 0.4,-0.084C0.43,-0.13 0.463,-0.189 0.487,-0.242L0.683,-0.242Z" style="fill:white;fill-rule:nonzero;"/>
            </g>
            <g transform="matrix(12,0,0,12,376.798,378.182)">
                <path d="M0.609,-0.578L0.543,-0.578C0.496,-0.578 0.462,-0.58 0.426,-0.584L0.426,-0.434C0.46,-0.438 0.493,-0.44 0.542,-0.44L0.609,-0.44L0.609,-0.347L0.519,-0.347C0.488,-0.347 0.47,-0.348 0.445,-0.35C0.447,-0.311 0.447,-0.306 0.447,-0.277L0.447,-0.02C0.447,0.029 0.446,0.061 0.443,0.088L0.593,0.088L0.593,0.047L0.783,0.047L0.783,0.088L0.936,0.088C0.933,0.058 0.931,0.016 0.931,-0.025L0.931,-0.266C0.931,-0.301 0.932,-0.328 0.934,-0.35C0.916,-0.348 0.895,-0.347 0.861,-0.347L0.758,-0.347L0.758,-0.44L0.849,-0.44C0.895,-0.44 0.93,-0.438 0.966,-0.434L0.966,-0.584C0.933,-0.58 0.898,-0.578 0.848,-0.578L0.758,-0.578L0.758,-0.682C0.886,-0.706 0.886,-0.706 0.931,-0.719C0.953,-0.725 0.953,-0.725 0.962,-0.728L0.881,-0.863C0.793,-0.821 0.602,-0.789 0.408,-0.783C0.433,-0.731 0.445,-0.696 0.456,-0.644C0.527,-0.65 0.553,-0.652 0.609,-0.659L0.609,-0.578ZM0.593,-0.21L0.783,-0.21L0.783,-0.089L0.593,-0.089L0.593,-0.21ZM0.07,-0.714C0.097,-0.716 0.121,-0.717 0.161,-0.717L0.311,-0.717C0.353,-0.717 0.377,-0.716 0.402,-0.714L0.402,-0.831C0.374,-0.828 0.358,-0.827 0.311,-0.827L0.161,-0.827C0.114,-0.827 0.098,-0.828 0.07,-0.831L0.07,-0.714ZM0.04,-0.556C0.065,-0.559 0.086,-0.56 0.121,-0.56L0.332,-0.56C0.38,-0.56 0.389,-0.56 0.411,-0.557L0.411,-0.689C0.39,-0.687 0.371,-0.686 0.33,-0.686L0.121,-0.686C0.084,-0.686 0.064,-0.687 0.04,-0.691L0.04,-0.556ZM0.073,-0.416C0.095,-0.418 0.101,-0.418 0.133,-0.418L0.344,-0.418C0.372,-0.418 0.382,-0.418 0.401,-0.416L0.401,-0.53C0.386,-0.528 0.375,-0.528 0.344,-0.528L0.133,-0.528C0.102,-0.528 0.09,-0.528 0.073,-0.53L0.073,-0.416ZM0.073,-0.274C0.093,-0.276 0.102,-0.276 0.131,-0.276L0.341,-0.276C0.373,-0.276 0.384,-0.276 0.401,-0.274L0.401,-0.388C0.385,-0.386 0.374,-0.386 0.343,-0.386L0.133,-0.386C0.101,-0.386 0.096,-0.386 0.073,-0.388L0.073,-0.274ZM0.209,0.049L0.271,0.049L0.271,0.077L0.408,0.077C0.405,0.055 0.405,0.044 0.405,0.003L0.405,-0.18C0.405,-0.215 0.405,-0.227 0.407,-0.246C0.391,-0.243 0.381,-0.243 0.346,-0.243L0.14,-0.243C0.107,-0.243 0.09,-0.244 0.066,-0.246C0.069,-0.219 0.07,-0.201 0.07,-0.171L0.07,-0.004C0.07,0.033 0.069,0.059 0.066,0.09L0.209,0.09L0.209,0.049ZM0.205,-0.134L0.271,-0.134L0.271,-0.068L0.205,-0.068L0.205,-0.134Z" style="fill:white;fill-rule:nonzero;"/>
            </g>
            <g transform="matrix(12,0,0,12,388.798,378.182)">
                <path d="M0.681,-0.771C0.711,-0.725 0.732,-0.682 0.751,-0.626L0.85,-0.665C0.83,-0.719 0.81,-0.757 0.777,-0.804L0.681,-0.771ZM0.145,-0.668C0.246,-0.633 0.329,-0.592 0.432,-0.525L0.521,-0.678C0.437,-0.728 0.352,-0.767 0.234,-0.81L0.145,-0.668ZM0.806,-0.814C0.846,-0.753 0.854,-0.737 0.878,-0.672L0.974,-0.71C0.954,-0.763 0.934,-0.801 0.901,-0.847L0.806,-0.814ZM0.067,-0.422C0.179,-0.378 0.267,-0.33 0.353,-0.266L0.438,-0.423C0.348,-0.482 0.274,-0.519 0.159,-0.565L0.067,-0.422ZM0.146,0.062C0.168,0.055 0.188,0.05 0.217,0.045C0.297,0.031 0.34,0.02 0.399,0.001C0.56,-0.049 0.684,-0.128 0.785,-0.243C0.849,-0.315 0.89,-0.384 0.941,-0.504C0.884,-0.54 0.848,-0.57 0.794,-0.629C0.761,-0.534 0.732,-0.476 0.684,-0.41C0.611,-0.309 0.521,-0.239 0.404,-0.192C0.307,-0.153 0.191,-0.129 0.096,-0.128L0.146,0.062Z" style="fill:white;fill-rule:nonzero;"/>
            </g>
            <g transform="matrix(12,0,0,12,400.798,378.182)">
                <path d="M0.577,-0.415L0.673,-0.415C0.735,-0.415 0.776,-0.413 0.804,-0.41L0.804,-0.563C0.765,-0.558 0.737,-0.556 0.673,-0.556L0.324,-0.556C0.264,-0.556 0.234,-0.558 0.195,-0.563L0.195,-0.41C0.238,-0.414 0.259,-0.415 0.325,-0.415L0.417,-0.415L0.417,-0.117L0.267,-0.117C0.194,-0.117 0.169,-0.118 0.132,-0.123L0.132,0.029C0.18,0.025 0.195,0.025 0.268,0.025L0.733,0.025C0.804,0.025 0.832,0.026 0.868,0.029L0.868,-0.123C0.828,-0.118 0.797,-0.117 0.733,-0.117L0.577,-0.117L0.577,-0.415Z" style="fill:white;fill-rule:nonzero;"/>
            </g>
            <g transform="matrix(12,0,0,12,412.798,378.182)">
                <path d="M0.582,0.077C0.576,0.028 0.576,0.016 0.576,-0.063L0.576,-0.256C0.693,-0.205 0.786,-0.152 0.869,-0.089L0.968,-0.236C0.867,-0.301 0.771,-0.348 0.644,-0.393C0.766,-0.498 0.777,-0.509 0.828,-0.566C0.858,-0.601 0.858,-0.601 0.874,-0.612L0.796,-0.703C0.777,-0.695 0.761,-0.692 0.732,-0.692L0.573,-0.692L0.573,-0.748C0.573,-0.785 0.575,-0.81 0.579,-0.839L0.393,-0.839C0.397,-0.804 0.398,-0.791 0.398,-0.746L0.398,-0.691L0.279,-0.691C0.219,-0.691 0.179,-0.693 0.133,-0.699L0.133,-0.537C0.177,-0.541 0.19,-0.542 0.277,-0.542L0.583,-0.544C0.5,-0.467 0.433,-0.422 0.331,-0.377C0.241,-0.337 0.137,-0.304 0.031,-0.282C0.07,-0.228 0.086,-0.198 0.113,-0.128C0.244,-0.167 0.326,-0.2 0.401,-0.244L0.401,-0.064C0.401,0.004 0.399,0.038 0.394,0.077L0.582,0.077Z" style="fill:white;fill-rule:nonzero;"/>
            </g>
            <g transform="matrix(12,0,0,12,424.798,378.182)">
                <path d="M0.171,-0.801C0.175,-0.771 0.177,-0.739 0.177,-0.692L0.177,-0.676L0.173,-0.12C0.172,-0.07 0.171,-0.059 0.161,-0.038L0.25,0.066C0.267,0.056 0.273,0.055 0.31,0.048C0.605,-0.003 0.79,-0.119 0.935,-0.343C0.877,-0.387 0.846,-0.421 0.8,-0.487C0.709,-0.306 0.559,-0.192 0.357,-0.147L0.363,-0.677C0.364,-0.736 0.365,-0.762 0.37,-0.8L0.171,-0.801Z" style="fill:white;fill-rule:nonzero;"/>
            </g>
            <g transform="matrix(12,0,0,12,436.798,378.182)">
                <path d="M0.056,-0.285C0.117,-0.29 0.15,-0.291 0.262,-0.291L0.738,-0.291C0.852,-0.291 0.896,-0.29 0.944,-0.285L0.944,-0.478C0.877,-0.471 0.839,-0.469 0.739,-0.469L0.261,-0.469C0.157,-0.469 0.103,-0.471 0.056,-0.478L0.056,-0.285Z" style="fill:white;fill-rule:nonzero;"/>
            </g>
            <g transform="matrix(12,0,0,12,448.798,378.182)">
                <path d="M0.353,-0.85C0.34,-0.804 0.323,-0.761 0.295,-0.71C0.236,-0.599 0.164,-0.516 0.046,-0.423C0.111,-0.387 0.142,-0.362 0.19,-0.31C0.291,-0.399 0.36,-0.481 0.418,-0.581L0.695,-0.583C0.674,-0.517 0.65,-0.463 0.609,-0.4C0.546,-0.446 0.514,-0.466 0.425,-0.514L0.32,-0.388C0.395,-0.347 0.444,-0.315 0.506,-0.264C0.416,-0.172 0.319,-0.113 0.167,-0.059C0.223,-0.005 0.247,0.026 0.284,0.091C0.361,0.056 0.402,0.034 0.456,-0.001C0.553,-0.065 0.635,-0.141 0.699,-0.227C0.773,-0.327 0.826,-0.435 0.885,-0.613C0.893,-0.637 0.896,-0.643 0.908,-0.656L0.819,-0.744C0.8,-0.734 0.787,-0.731 0.758,-0.731L0.489,-0.728C0.517,-0.785 0.531,-0.813 0.532,-0.815L0.353,-0.85Z" style="fill:white;fill-rule:nonzero;"/>
            </g>
            <g transform="matrix(12,0,0,12,460.798,378.182)">
                <path d="M0.056,-0.285C0.117,-0.29 0.15,-0.291 0.262,-0.291L0.738,-0.291C0.852,-0.291 0.896,-0.29 0.944,-0.285L0.944,-0.478C0.877,-0.471 0.839,-0.469 0.739,-0.469L0.261,-0.469C0.157,-0.469 0.103,-0.471 0.056,-0.478L0.056,-0.285Z" style="fill:white;fill-rule:nonzero;"/>
            </g>
            <g transform="matrix(12,0,0,12,308.182,390.823)">
                <path d="M0.863,0.031C0.85,0.003 0.834,-0.038 0.815,-0.091L0.598,-0.693C0.578,-0.746 0.571,-0.772 0.564,-0.801L0.303,-0.801C0.298,-0.772 0.289,-0.742 0.271,-0.693L0.055,-0.091C0.031,-0.023 0.022,0.001 0.007,0.031L0.241,0.031C0.246,-0.006 0.253,-0.037 0.266,-0.077L0.293,-0.162L0.578,-0.162L0.605,-0.077C0.615,-0.043 0.621,-0.017 0.629,0.031L0.863,0.031ZM0.529,-0.33L0.341,-0.33L0.434,-0.63L0.529,-0.33Z" style="fill:white;fill-rule:nonzero;"/>
            </g>
            <g transform="matrix(12,0,0,12,318.622,390.823)">
                <path d="M0.26,0.031C0.254,-0.021 0.252,-0.063 0.252,-0.12L0.252,-0.322C0.295,-0.392 0.345,-0.427 0.401,-0.427C0.431,-0.427 0.454,-0.417 0.467,-0.399C0.479,-0.382 0.483,-0.365 0.483,-0.325L0.483,-0.12C0.483,-0.059 0.481,-0.017 0.475,0.031L0.683,0.031C0.678,-0.011 0.675,-0.061 0.675,-0.119L0.675,-0.37C0.675,-0.449 0.658,-0.498 0.618,-0.538C0.581,-0.575 0.526,-0.594 0.457,-0.594C0.375,-0.594 0.314,-0.569 0.251,-0.509C0.251,-0.516 0.252,-0.531 0.252,-0.537L0.252,-0.579L0.053,-0.579C0.059,-0.539 0.061,-0.497 0.061,-0.428L0.061,-0.12C0.061,-0.058 0.059,-0.016 0.053,0.031L0.26,0.031Z" style="fill:white;fill-rule:nonzero;"/>
            </g>
            <g transform="matrix(12,0,0,12,327.43,390.823)">
                <path d="M0.454,-0.364C0.382,-0.362 0.352,-0.361 0.313,-0.357C0.223,-0.349 0.156,-0.328 0.105,-0.292C0.057,-0.259 0.032,-0.209 0.032,-0.146C0.032,-0.091 0.051,-0.043 0.087,-0.01C0.127,0.027 0.184,0.045 0.26,0.045C0.342,0.045 0.398,0.028 0.454,-0.015L0.454,0.031L0.648,0.031C0.643,-0.014 0.641,-0.05 0.641,-0.111L0.641,-0.381C0.641,-0.471 0.613,-0.526 0.549,-0.561C0.51,-0.582 0.438,-0.596 0.364,-0.596C0.267,-0.596 0.193,-0.577 0.139,-0.539C0.097,-0.509 0.075,-0.477 0.055,-0.418L0.246,-0.387C0.261,-0.436 0.295,-0.457 0.359,-0.457C0.425,-0.457 0.454,-0.435 0.454,-0.387L0.454,-0.364ZM0.454,-0.208C0.454,-0.178 0.441,-0.151 0.418,-0.131C0.391,-0.108 0.346,-0.093 0.305,-0.093C0.253,-0.093 0.223,-0.114 0.223,-0.15C0.223,-0.179 0.245,-0.204 0.281,-0.216C0.322,-0.229 0.365,-0.234 0.454,-0.236L0.454,-0.208Z" style="fill:white;fill-rule:nonzero;"/>
            </g>
            <g transform="matrix(12,0,0,12,335.842,390.823)">
                <path d="M0.52,0.031L0.717,0.031C0.711,-0.018 0.709,-0.059 0.709,-0.126L0.709,-0.644C0.709,-0.711 0.711,-0.759 0.717,-0.801L0.512,-0.801C0.518,-0.757 0.52,-0.714 0.52,-0.644L0.52,-0.561C0.52,-0.547 0.52,-0.538 0.521,-0.523C0.455,-0.576 0.397,-0.597 0.316,-0.597C0.234,-0.597 0.164,-0.57 0.113,-0.519C0.057,-0.462 0.027,-0.379 0.027,-0.275C0.027,-0.073 0.137,0.049 0.319,0.049C0.403,0.049 0.454,0.031 0.521,-0.023C0.52,-0.014 0.52,-0.007 0.52,-0.001L0.52,0.031ZM0.363,-0.444C0.454,-0.444 0.518,-0.374 0.518,-0.277C0.518,-0.178 0.453,-0.104 0.364,-0.104C0.327,-0.104 0.291,-0.118 0.267,-0.142C0.237,-0.171 0.221,-0.217 0.221,-0.274C0.221,-0.379 0.276,-0.444 0.363,-0.444Z" style="fill:white;fill-rule:nonzero;"/>
            </g>
            <g transform="matrix(12,0,0,12,345.07,390.823)">
                <path d="M0.356,0.054C0.555,0.054 0.687,-0.078 0.687,-0.277C0.687,-0.475 0.559,-0.602 0.357,-0.602C0.155,-0.602 0.027,-0.475 0.027,-0.275C0.027,-0.074 0.155,0.054 0.356,0.054ZM0.358,-0.452C0.443,-0.452 0.494,-0.386 0.494,-0.274C0.494,-0.163 0.444,-0.098 0.357,-0.098C0.27,-0.098 0.218,-0.165 0.218,-0.276C0.218,-0.386 0.27,-0.452 0.358,-0.452Z" style="fill:white;fill-rule:nonzero;"/>
            </g>
            <g transform="matrix(12,0,0,12,353.65,390.823)">
                <path d="M0.03,-0.151C0.04,-0.103 0.05,-0.079 0.07,-0.051C0.118,0.015 0.207,0.049 0.333,0.049C0.44,0.049 0.522,0.024 0.57,-0.024C0.603,-0.056 0.621,-0.104 0.621,-0.157C0.621,-0.229 0.59,-0.278 0.525,-0.31C0.49,-0.328 0.459,-0.337 0.361,-0.358C0.262,-0.38 0.241,-0.39 0.241,-0.417C0.241,-0.443 0.273,-0.46 0.325,-0.46C0.379,-0.46 0.404,-0.442 0.409,-0.401L0.602,-0.422C0.586,-0.478 0.57,-0.507 0.537,-0.536C0.49,-0.579 0.419,-0.6 0.324,-0.6C0.157,-0.6 0.056,-0.527 0.056,-0.407C0.056,-0.373 0.065,-0.339 0.081,-0.312C0.1,-0.282 0.133,-0.259 0.181,-0.241C0.214,-0.23 0.253,-0.22 0.329,-0.205C0.384,-0.194 0.397,-0.19 0.411,-0.182C0.425,-0.174 0.433,-0.161 0.433,-0.146C0.433,-0.115 0.399,-0.098 0.339,-0.098C0.272,-0.098 0.238,-0.121 0.228,-0.173L0.03,-0.151Z" style="fill:white;fill-rule:nonzero;"/>
            </g>
            <g transform="matrix(12,0,0,12,365.494,390.823)">
                <path d="M0.489,-0.624L0.602,-0.624C0.674,-0.624 0.713,-0.622 0.758,-0.617L0.758,-0.808C0.712,-0.803 0.672,-0.801 0.602,-0.801L0.164,-0.801C0.103,-0.801 0.048,-0.804 0.015,-0.808L0.015,-0.617C0.086,-0.623 0.103,-0.624 0.166,-0.624L0.284,-0.624L0.284,-0.12C0.284,-0.057 0.282,-0.016 0.276,0.031L0.497,0.031C0.491,-0.016 0.489,-0.06 0.489,-0.12L0.489,-0.624Z" style="fill:white;fill-rule:nonzero;"/>
            </g>
            <g transform="matrix(12,0,0,12,374.77,390.823)">
                <path d="M0.661,-0.218C0.66,-0.228 0.66,-0.234 0.66,-0.238C0.657,-0.295 0.653,-0.337 0.645,-0.369C0.61,-0.518 0.501,-0.603 0.345,-0.603C0.154,-0.603 0.027,-0.472 0.027,-0.274C0.027,-0.175 0.059,-0.09 0.118,-0.03C0.175,0.027 0.252,0.055 0.35,0.055C0.449,0.055 0.529,0.026 0.586,-0.03C0.614,-0.058 0.629,-0.081 0.652,-0.133L0.478,-0.182C0.47,-0.156 0.463,-0.145 0.448,-0.131C0.422,-0.107 0.387,-0.094 0.347,-0.094C0.268,-0.094 0.221,-0.137 0.211,-0.218L0.661,-0.218ZM0.214,-0.356C0.231,-0.422 0.274,-0.454 0.345,-0.454C0.414,-0.454 0.457,-0.42 0.471,-0.356L0.214,-0.356Z" style="fill:white;fill-rule:nonzero;"/>
            </g>
            <g transform="matrix(12,0,0,12,383.026,390.823)">
                <path d="M0.698,0.031C0.665,-0.01 0.644,-0.037 0.624,-0.065L0.464,-0.291L0.606,-0.491C0.623,-0.514 0.654,-0.555 0.674,-0.579L0.45,-0.579C0.44,-0.553 0.426,-0.527 0.404,-0.494L0.355,-0.419L0.305,-0.494C0.284,-0.525 0.276,-0.54 0.26,-0.579L0.034,-0.579C0.074,-0.528 0.097,-0.498 0.102,-0.491L0.245,-0.291L0.083,-0.063C0.064,-0.036 0.035,0.001 0.009,0.031L0.243,0.031C0.258,-0.001 0.275,-0.033 0.291,-0.057L0.354,-0.156L0.416,-0.06C0.434,-0.032 0.453,0.001 0.466,0.031L0.698,0.031Z" style="fill:white;fill-rule:nonzero;"/>
            </g>
            <g transform="matrix(12,0,0,12,391.51,390.823)">
                <path d="M0.132,-0.579L0.096,-0.579C0.061,-0.579 0.036,-0.581 0.007,-0.585L0.007,-0.418C0.036,-0.422 0.062,-0.424 0.094,-0.424L0.132,-0.424L0.132,-0.118C0.132,-0.05 0.146,-0.016 0.184,0.013C0.216,0.037 0.263,0.048 0.331,0.048C0.385,0.048 0.424,0.042 0.469,0.028L0.454,-0.124C0.429,-0.111 0.41,-0.106 0.384,-0.106C0.365,-0.106 0.349,-0.11 0.338,-0.117C0.325,-0.126 0.32,-0.14 0.32,-0.168L0.32,-0.424L0.362,-0.424C0.398,-0.424 0.424,-0.422 0.454,-0.418L0.454,-0.584C0.423,-0.58 0.4,-0.579 0.356,-0.579L0.32,-0.579L0.32,-0.6C0.32,-0.648 0.323,-0.696 0.328,-0.737L0.124,-0.737C0.13,-0.69 0.132,-0.65 0.132,-0.6L0.132,-0.579Z" style="fill:white;fill-rule:nonzero;"/>
            </g>
            <g transform="matrix(12,0,0,12,401.254,390.823)">
                <path d="M0.595,-0.273L0.595,-0.159C0.546,-0.134 0.503,-0.123 0.45,-0.123C0.387,-0.123 0.338,-0.142 0.306,-0.177C0.266,-0.221 0.245,-0.293 0.245,-0.386C0.245,-0.554 0.315,-0.647 0.443,-0.647C0.485,-0.647 0.518,-0.637 0.544,-0.616C0.566,-0.599 0.578,-0.58 0.589,-0.544L0.793,-0.591C0.777,-0.639 0.761,-0.669 0.734,-0.7C0.668,-0.78 0.573,-0.819 0.448,-0.819C0.196,-0.819 0.037,-0.652 0.037,-0.389C0.037,-0.252 0.079,-0.133 0.155,-0.057C0.226,0.015 0.325,0.05 0.452,0.05C0.526,0.05 0.599,0.038 0.664,0.016C0.709,0.001 0.736,-0.012 0.791,-0.047C0.785,-0.093 0.784,-0.125 0.784,-0.196L0.784,-0.308C0.784,-0.373 0.786,-0.406 0.791,-0.444C0.747,-0.44 0.71,-0.439 0.659,-0.439L0.579,-0.439C0.509,-0.439 0.485,-0.44 0.448,-0.445L0.448,-0.268C0.479,-0.272 0.496,-0.273 0.547,-0.273L0.595,-0.273Z" style="fill:white;fill-rule:nonzero;"/>
            </g>
            <g transform="matrix(12,0,0,12,411.346,390.823)">
                <path d="M0.661,-0.218C0.66,-0.228 0.66,-0.234 0.66,-0.238C0.657,-0.295 0.653,-0.337 0.645,-0.369C0.61,-0.518 0.501,-0.603 0.345,-0.603C0.154,-0.603 0.027,-0.472 0.027,-0.274C0.027,-0.175 0.059,-0.09 0.118,-0.03C0.175,0.027 0.252,0.055 0.35,0.055C0.449,0.055 0.529,0.026 0.586,-0.03C0.614,-0.058 0.629,-0.081 0.652,-0.133L0.478,-0.182C0.47,-0.156 0.463,-0.145 0.448,-0.131C0.422,-0.107 0.387,-0.094 0.347,-0.094C0.268,-0.094 0.221,-0.137 0.211,-0.218L0.661,-0.218ZM0.214,-0.356C0.231,-0.422 0.274,-0.454 0.345,-0.454C0.414,-0.454 0.457,-0.42 0.471,-0.356L0.214,-0.356Z" style="fill:white;fill-rule:nonzero;"/>
            </g>
            <g transform="matrix(12,0,0,12,419.602,390.823)">
                <path d="M0.26,0.031C0.254,-0.021 0.252,-0.063 0.252,-0.12L0.252,-0.322C0.295,-0.392 0.345,-0.427 0.401,-0.427C0.431,-0.427 0.454,-0.417 0.467,-0.399C0.479,-0.382 0.483,-0.365 0.483,-0.325L0.483,-0.12C0.483,-0.059 0.481,-0.017 0.475,0.031L0.683,0.031C0.678,-0.011 0.675,-0.061 0.675,-0.119L0.675,-0.37C0.675,-0.449 0.658,-0.498 0.618,-0.538C0.581,-0.575 0.526,-0.594 0.457,-0.594C0.375,-0.594 0.314,-0.569 0.251,-0.509C0.251,-0.516 0.252,-0.531 0.252,-0.537L0.252,-0.579L0.053,-0.579C0.059,-0.539 0.061,-0.497 0.061,-0.428L0.061,-0.12C0.061,-0.058 0.059,-0.016 0.053,0.031L0.26,0.031Z" style="fill:white;fill-rule:nonzero;"/>
            </g>
            <g transform="matrix(12,0,0,12,428.41,390.823)">
                <path d="M0.661,-0.218C0.66,-0.228 0.66,-0.234 0.66,-0.238C0.657,-0.295 0.653,-0.337 0.645,-0.369C0.61,-0.518 0.501,-0.603 0.345,-0.603C0.154,-0.603 0.027,-0.472 0.027,-0.274C0.027,-0.175 0.059,-0.09 0.118,-0.03C0.175,0.027 0.252,0.055 0.35,0.055C0.449,0.055 0.529,0.026 0.586,-0.03C0.614,-0.058 0.629,-0.081 0.652,-0.133L0.478,-0.182C0.47,-0.156 0.463,-0.145 0.448,-0.131C0.422,-0.107 0.387,-0.094 0.347,-0.094C0.268,-0.094 0.221,-0.137 0.211,-0.218L0.661,-0.218ZM0.214,-0.356C0.231,-0.422 0.274,-0.454 0.345,-0.454C0.414,-0.454 0.457,-0.42 0.471,-0.356L0.214,-0.356Z" style="fill:white;fill-rule:nonzero;"/>
            </g>
            <g transform="matrix(12,0,0,12,436.666,390.823)">
                <path d="M0.551,-0.579C0.504,-0.589 0.484,-0.591 0.452,-0.591C0.361,-0.591 0.301,-0.564 0.252,-0.5L0.252,-0.579L0.053,-0.579C0.059,-0.536 0.061,-0.501 0.061,-0.428L0.061,-0.12C0.061,-0.055 0.059,-0.019 0.053,0.031L0.26,0.031C0.254,-0.017 0.252,-0.055 0.252,-0.119L0.252,-0.275C0.256,-0.319 0.263,-0.34 0.282,-0.364C0.311,-0.4 0.35,-0.418 0.401,-0.418C0.432,-0.418 0.457,-0.413 0.503,-0.399L0.551,-0.579Z" style="fill:white;fill-rule:nonzero;"/>
            </g>
            <g transform="matrix(12,0,0,12,443.362,390.823)">
                <path d="M0.454,-0.364C0.382,-0.362 0.352,-0.361 0.313,-0.357C0.223,-0.349 0.156,-0.328 0.105,-0.292C0.057,-0.259 0.032,-0.209 0.032,-0.146C0.032,-0.091 0.051,-0.043 0.087,-0.01C0.127,0.027 0.184,0.045 0.26,0.045C0.342,0.045 0.398,0.028 0.454,-0.015L0.454,0.031L0.648,0.031C0.643,-0.014 0.641,-0.05 0.641,-0.111L0.641,-0.381C0.641,-0.471 0.613,-0.526 0.549,-0.561C0.51,-0.582 0.438,-0.596 0.364,-0.596C0.267,-0.596 0.193,-0.577 0.139,-0.539C0.097,-0.509 0.075,-0.477 0.055,-0.418L0.246,-0.387C0.261,-0.436 0.295,-0.457 0.359,-0.457C0.425,-0.457 0.454,-0.435 0.454,-0.387L0.454,-0.364ZM0.454,-0.208C0.454,-0.178 0.441,-0.151 0.418,-0.131C0.391,-0.108 0.346,-0.093 0.305,-0.093C0.253,-0.093 0.223,-0.114 0.223,-0.15C0.223,-0.179 0.245,-0.204 0.281,-0.216C0.322,-0.229 0.365,-0.234 0.454,-0.236L0.454,-0.208Z" style="fill:white;fill-rule:nonzero;"/>
            </g>
            <g transform="matrix(12,0,0,12,451.774,390.823)">
                <path d="M0.132,-0.579L0.096,-0.579C0.061,-0.579 0.036,-0.581 0.007,-0.585L0.007,-0.418C0.036,-0.422 0.062,-0.424 0.094,-0.424L0.132,-0.424L0.132,-0.118C0.132,-0.05 0.146,-0.016 0.184,0.013C0.216,0.037 0.263,0.048 0.331,0.048C0.385,0.048 0.424,0.042 0.469,0.028L0.454,-0.124C0.429,-0.111 0.41,-0.106 0.384,-0.106C0.365,-0.106 0.349,-0.11 0.338,-0.117C0.325,-0.126 0.32,-0.14 0.32,-0.168L0.32,-0.424L0.362,-0.424C0.398,-0.424 0.424,-0.422 0.454,-0.418L0.454,-0.584C0.423,-0.58 0.4,-0.579 0.356,-0.579L0.32,-0.579L0.32,-0.6C0.32,-0.648 0.323,-0.696 0.328,-0.737L0.124,-0.737C0.13,-0.69 0.132,-0.65 0.132,-0.6L0.132,-0.579Z" style="fill:white;fill-rule:nonzero;"/>
            </g>
            <g transform="matrix(12,0,0,12,457.522,390.823)">
                <path d="M0.356,0.054C0.555,0.054 0.687,-0.078 0.687,-0.277C0.687,-0.475 0.559,-0.602 0.357,-0.602C0.155,-0.602 0.027,-0.475 0.027,-0.275C0.027,-0.074 0.155,0.054 0.356,0.054ZM0.358,-0.452C0.443,-0.452 0.494,-0.386 0.494,-0.274C0.494,-0.163 0.444,-0.098 0.357,-0.098C0.27,-0.098 0.218,-0.165 0.218,-0.276C0.218,-0.386 0.27,-0.452 0.358,-0.452Z" style="fill:white;fill-rule:nonzero;"/>
            </g>
            <g transform="matrix(12,0,0,12,466.102,390.823)">
                <path d="M0.551,-0.579C0.504,-0.589 0.484,-0.591 0.452,-0.591C0.361,-0.591 0.301,-0.564 0.252,-0.5L0.252,-0.579L0.053,-0.579C0.059,-0.536 0.061,-0.501 0.061,-0.428L0.061,-0.12C0.061,-0.055 0.059,-0.019 0.053,0.031L0.26,0.031C0.254,-0.017 0.252,-0.055 0.252,-0.119L0.252,-0.275C0.256,-0.319 0.263,-0.34 0.282,-0.364C0.311,-0.4 0.35,-0.418 0.401,-0.418C0.432,-0.418 0.457,-0.413 0.503,-0.399L0.551,-0.579Z" style="fill:white;fill-rule:nonzero;"/>
            </g>
        </g>
    </g>
</svg>
